<svg width="19" height="21" viewBox="0 0 19 21" fill="none" xmlns="http://www.w3.org/2000/svg">
<path d="M11.6011 12.2124L10.8472 12.1282L8.61808 8.71551L5.81085 10.6553L5.05688 10.5711L7.86469 6.03639L8.61866 6.12057L11.446 9.28895L13.4888 7.2248L14.2349 7.3081L11.6011 12.2124Z" fill="black"/>
<mask id="path-2-inside-1" fill="white">
<path fill-rule="evenodd" clip-rule="evenodd" d="M9.5 19C14.7467 19 19 14.7467 19 9.5C19 4.25329 14.7467 0 9.5 0C4.25329 0 0 4.25329 0 9.5C0 12.6443 1.52761 15.4319 3.88115 17.161L4.32521 20.4916L6.77687 18.604C7.6395 18.8616 8.55359 19 9.5 19Z"/>
</mask>
<path d="M3.88115 17.161L4.87238 17.0288L4.81614 16.607L4.47322 16.3551L3.88115 17.161ZM4.32521 20.4916L3.33398 20.6238L3.56288 22.3406L4.93528 21.2839L4.32521 20.4916ZM6.77687 18.604L7.06306 17.6458L6.57248 17.4993L6.16681 17.8116L6.77687 18.604ZM18 9.5C18 14.1944 14.1944 18 9.5 18V20C15.299 20 20 15.299 20 9.5H18ZM9.5 1C14.1944 1 18 4.80558 18 9.5H20C20 3.70101 15.299 -1 9.5 -1V1ZM1 9.5C1 4.80558 4.80558 1 9.5 1V-1C3.70101 -1 -1 3.70101 -1 9.5H1ZM4.47322 16.3551C2.3651 14.8063 1 12.3126 1 9.5H-1C-1 12.976 0.690116 16.0575 3.28908 17.9669L4.47322 16.3551ZM5.31644 20.3594L4.87238 17.0288L2.88992 17.2931L3.33398 20.6238L5.31644 20.3594ZM6.16681 17.8116L3.71514 19.6992L4.93528 21.2839L7.38694 19.3963L6.16681 17.8116ZM9.5 18C8.65154 18 7.83382 17.876 7.06306 17.6458L6.49068 19.5621C7.44518 19.8472 8.45564 20 9.5 20V18Z" fill="#262626" mask="url(#path-2-inside-1)"/>
</svg>
