<svg width="19" height="19" viewBox="0 0 19 19" fill="none" xmlns="http://www.w3.org/2000/svg">
<circle cx="9.5" cy="9.5" r="9.5" fill="#212121"/>
<path d="M7.7959 9.87598L8.90918 7.73438H9.54785L8.07715 10.4092V12H7.51465V10.4092L6.04395 7.73438H6.68848L7.7959 9.87598ZM11.3086 10.0986C10.8262 9.95996 10.4746 9.79004 10.2539 9.58887C10.0352 9.38574 9.92578 9.13574 9.92578 8.83887C9.92578 8.50293 10.0596 8.22559 10.3271 8.00684C10.5967 7.78613 10.9463 7.67578 11.376 7.67578C11.6689 7.67578 11.9297 7.73242 12.1582 7.8457C12.3887 7.95898 12.5664 8.11523 12.6914 8.31445C12.8184 8.51367 12.8818 8.73145 12.8818 8.96777H12.3164C12.3164 8.70996 12.2344 8.50781 12.0703 8.36133C11.9062 8.21289 11.6748 8.13867 11.376 8.13867C11.0986 8.13867 10.8818 8.2002 10.7256 8.32324C10.5713 8.44434 10.4941 8.61328 10.4941 8.83008C10.4941 9.00391 10.5674 9.15137 10.7139 9.27246C10.8623 9.3916 11.1133 9.50098 11.4668 9.60059C11.8223 9.7002 12.0996 9.81055 12.2988 9.93164C12.5 10.0508 12.6484 10.1904 12.7441 10.3506C12.8418 10.5107 12.8906 10.6992 12.8906 10.916C12.8906 11.2617 12.7559 11.5391 12.4863 11.748C12.2168 11.9551 11.8564 12.0586 11.4053 12.0586C11.1123 12.0586 10.8389 12.0029 10.585 11.8916C10.3311 11.7783 10.1348 11.624 9.99609 11.4287C9.85938 11.2334 9.79102 11.0117 9.79102 10.7637H10.3564C10.3564 11.0215 10.4512 11.2256 10.6406 11.376C10.832 11.5244 11.0869 11.5986 11.4053 11.5986C11.7021 11.5986 11.9297 11.5381 12.0879 11.417C12.2461 11.2959 12.3252 11.1309 12.3252 10.9219C12.3252 10.7129 12.252 10.5518 12.1055 10.4385C11.959 10.3232 11.6934 10.21 11.3086 10.0986Z" fill="white"/>
</svg>
